# xmcd
#
# Track frame offsets:
#	150
#	12710
#	24001
#	34928
#	47179
#	56862
#	71937
#	85673
#
# Disc length: 1274 seconds
#
# Revision: 0
# Processed by: cddbd v1.5.1PL2 Copyright (c) Steve Scherf et al.
# Submitted via: dBpowerAMP V4.0
#
DISCID=6a04f808
DTITLE=Porter Wagoner - Greatest Hits
DYEAR=2005
DGENRE=Country
TTITLE0=The Carroll County Accident
TTITLE1=Misery Loves Company
TTITLE2=Eat, Drink, And Be Merry (Tomorrow You'll Cry)
TTITLE3=A Satisfied Mind
TTITLE4=Sorrow On The Rocks
TTITLE5=The Cold Hard Facts Of Life
TTITLE6=Skid Row Joe
TTITLE7=Green, Green Grass Of Home
EXTD=This album is from K-TEL
EXTT0=
EXTT1=
EXTT2=
EXTT3=
EXTT4=
EXTT5=
EXTT6=
EXTT7=
PLAYORDER=
